HIERARCHY
ROOT Hips
{
	OFFSET -0.001795 -0.223333 0.028219
	CHANNELS 6 Xposition Yposition Zposition Zrotation Yrotation Xrotation 
	JOINT LeftUpLeg
	{
		OFFSET 0.069520 -0.091406 -0.006815
		CHANNELS 3 Zrotation Yrotation Xrotation
		JOINT LeftLeg
		{
			OFFSET 0.034277 -0.375199 -0.004496
			CHANNELS 3 Zrotation Yrotation Xrotation
			JOINT LeftFoot
			{
				OFFSET -0.013596 -0.397961 -0.043693
				CHANNELS 3 Zrotation Yrotation Xrotation
				JOINT LeftToe
				{
					OFFSET 0.026358 -0.055791 0.119288
					CHANNELS 3 Zrotation Yrotation Xrotation
					End Site
					{
						OFFSET 0.000000 0.000000 0.000000
					}
				}
			}
		}
	}
	JOINT RightUpLeg
	{
		OFFSET -0.067670 -0.090522 -0.004320
		CHANNELS 3 Zrotation Yrotation Xrotation
		JOINT RightLeg
		{
			OFFSET -0.038290 -0.382569 -0.008850
			CHANNELS 3 Zrotation Yrotation Xrotation
			JOINT RightFoot
			{
				OFFSET 0.015774 -0.398415 -0.042312
				CHANNELS 3 Zrotation Yrotation Xrotation
				JOINT RightToe
				{
					OFFSET -0.025372 -0.048144 0.123348
					CHANNELS 3 Zrotation Yrotation Xrotation
					End Site
					{
						OFFSET 0.000000 0.000000 0.000000
					}
				}
			}
		}
	}
	JOINT Spine
	{
		OFFSET -0.002533 0.108963 -0.026696
		CHANNELS 3 Zrotation Yrotation Xrotation
		JOINT Spine1
		{
			OFFSET 0.005487 0.135180 0.001092
			CHANNELS 3 Zrotation Yrotation Xrotation
			JOINT Spine2
			{
				OFFSET 0.001457 0.052922 0.025425
				CHANNELS 3 Zrotation Yrotation Xrotation
				JOINT Neck
				{
					OFFSET -0.002778 0.213870 -0.042857
					CHANNELS 3 Zrotation Yrotation Xrotation
					JOINT Head
					{
						OFFSET 0.005152 0.064970 0.051349
						CHANNELS 3 Zrotation Yrotation Xrotation
						End Site
						{
							OFFSET 0.000000 0.000000 0.000000
						}
					}
				}
				JOINT LeftShoulder
				{
					OFFSET 0.078845 0.121749 -0.034090
					CHANNELS 3 Zrotation Yrotation Xrotation
					JOINT LeftArm
					{
						OFFSET 0.090977 0.030469 -0.008868
						CHANNELS 3 Zrotation Yrotation Xrotation
						JOINT LeftForeArm
						{
							OFFSET 0.259612 -0.012772 -0.027456
							CHANNELS 3 Zrotation Yrotation Xrotation
							JOINT LeftHand
							{
								OFFSET 0.249234 0.008986 -0.001171
								CHANNELS 3 Zrotation Yrotation Xrotation
								End Site
								{
									OFFSET 0.000000 0.000000 0.000000
								}
							}
						}
					}
				}
				JOINT RightShoulder
				{
					OFFSET -0.081759 0.118833 -0.038615
					CHANNELS 3 Zrotation Yrotation Xrotation
					JOINT RightArm
					{
						OFFSET -0.096012 0.032551 -0.009143
						CHANNELS 3 Zrotation Yrotation Xrotation
						JOINT RightForeArm
						{
							OFFSET -0.253742 -0.013329 -0.021401
							CHANNELS 3 Zrotation Yrotation Xrotation
							JOINT RightHand
							{
								OFFSET -0.255298 0.007772 -0.005559
								CHANNELS 3 Zrotation Yrotation Xrotation
								End Site
								{
									OFFSET 0.000000 0.000000 0.000000
								}
							}
						}
					}
				}
			}
		}
	}
}
MOTION
Frames: 10
Frame Time: 0.050000
0.000000 0.949526 0.000000 0.508960 1.492302 4.119159 2.490023 0.172203 3.416932 -3.304023 0.384403 -8.931087 1.255211 7.087347 12.937263 0.000000 0.000000 0.000000 -1.963421 -0.035377 1.133073 1.923336 -0.367801 -6.955763 1.490407 -1.792027 11.758590 0.000000 0.000000 0.000000 4.959480 0.048655 -1.927078 -3.143416 1.456588 -11.130850 -2.701664 2.115442 16.878367 6.142178 -1.780025 -21.566522 0.000000 0.000000 0.000000 -21.948519 -9.194093 2.624102 -10.496131 2.911033 -1.440784 18.991929 -6.100094 -0.820085 0.000000 0.000000 0.000000 21.936460 0.776812 -0.230642 10.823627 -2.906422 -1.502888 -16.778744 11.546636 -0.965890 0.000000 0.000000 0.000000 
0.000204 0.948427 0.001601 0.380266 1.451051 4.457540 2.516420 0.174118 3.490609 -3.141013 0.383100 -9.518757 1.321222 7.138043 12.766307 0.000000 0.000000 0.000000 -2.005525 -0.008458 0.854163 2.230567 -0.381332 -6.940996 1.456098 -1.756245 11.481924 0.000000 0.000000 0.000000 5.435744 0.047721 -2.020853 -3.708897 1.655207 -11.057601 -2.873460 3.200238 16.349367 6.645331 -1.721690 -22.887791 0.000000 0.000000 0.000000 -19.625049 -9.871436 2.743315 -10.615065 2.328683 -1.393727 17.889113 -4.186220 -0.542740 0.000000 0.000000 0.000000 22.573654 -1.651872 -1.388784 10.754996 -3.604026 -1.546713 -15.471894 13.188537 -1.011202 0.000000 0.000000 0.000000 
0.000481 0.947588 0.002660 0.318928 2.174006 4.467459 2.845979 0.131279 3.213202 -3.471437 0.379158 -9.064220 1.069401 6.672580 12.265596 0.000000 0.000000 0.000000 -1.918399 -0.001642 0.700036 2.307132 -0.379298 -6.408357 1.037737 -2.319454 11.048786 0.000000 0.000000 0.000000 6.152352 0.074073 -2.393595 -4.181218 1.803012 -13.737092 -3.083476 3.256295 19.951931 7.523461 -2.114658 -23.917473 0.000000 0.000000 0.000000 -18.331210 -10.532046 3.155424 -11.228210 3.303297 -1.591209 18.746268 -4.295756 -0.617818 0.000000 0.000000 0.000000 23.323868 -0.782595 -0.600299 11.027163 -3.716074 -1.697583 -16.287684 11.213622 -0.869218 0.000000 0.000000 0.000000 
0.000799 0.946970 0.003340 0.241646 2.573441 4.406567 2.954694 0.136403 3.438562 -3.461472 0.373829 -9.343739 0.897374 6.387263 12.086203 0.000000 0.000000 0.000000 -2.015976 -0.010916 0.824697 2.680014 -0.401327 -6.349219 0.849193 -2.583593 10.893088 0.000000 0.000000 0.000000 6.256943 0.103061 -2.705283 -4.467678 1.889998 -14.718349 -2.635900 3.271783 21.316079 7.324235 -1.814682 -25.197015 0.000000 0.000000 0.000000 -19.031067 -11.380647 3.571392 -11.153913 4.496881 -1.647308 20.015312 -3.867732 -0.622821 0.000000 0.000000 0.000000 24.930664 -0.593153 -0.393945 9.750726 -4.950971 -1.528441 -16.706649 11.379165 -0.944350 0.000000 0.000000 0.000000 
0.001291 0.946592 0.003722 0.104981 2.756774 4.474504 3.083503 0.123219 3.382565 -3.442161 0.370524 -9.375690 0.855514 6.285363 11.907593 0.000000 0.000000 0.000000 -2.091243 0.012853 0.565589 3.062331 -0.418026 -5.945650 0.741013 -2.719845 10.741899 0.000000 0.000000 0.000000 6.225067 0.136243 -3.087604 -4.220947 1.806635 -15.326155 -2.700137 3.358679 21.911665 8.178994 -2.285605 -25.237223 0.000000 0.000000 0.000000 -19.961255 -11.473273 3.559121 -11.395761 4.838334 -1.706723 20.969654 -4.816071 -0.813397 0.000000 0.000000 0.000000 26.293537 -0.824325 -0.487623 9.774658 -4.344140 -1.544590 -17.204767 11.549649 -1.005036 0.000000 0.000000 0.000000 
0.001925 0.946153 0.003809 0.074091 2.666694 4.521100 2.723244 0.134158 3.218465 -2.842219 0.358974 -9.146818 0.990781 6.412004 11.626118 0.000000 0.000000 0.000000 -2.683166 0.069554 0.096326 4.085316 -0.473703 -5.199510 0.748954 -2.637459 10.522839 0.000000 0.000000 0.000000 5.999312 0.158725 -3.345004 -4.094525 1.771253 -14.850153 -2.439130 2.874684 21.805930 7.936088 -2.150869 -25.761831 0.000000 0.000000 0.000000 -20.956175 -10.892726 3.377079 -12.783177 4.952027 -1.975894 21.141212 -6.120914 -0.998708 0.000000 0.000000 0.000000 27.131667 -0.287725 -0.373660 10.867896 -3.331024 -1.704101 -17.983168 11.633371 -1.076696 0.000000 0.000000 0.000000 
0.002593 0.945790 0.003723 -0.089429 2.617574 4.542523 2.758690 0.127543 3.145471 -2.680348 0.355297 -9.065173 1.080200 6.487614 11.409246 0.000000 0.000000 0.000000 -2.652609 0.069770 0.086575 4.262924 -0.485271 -5.254083 0.783240 -2.574943 10.524666 0.000000 0.000000 0.000000 6.137125 0.170942 -3.470421 -3.880187 1.708587 -14.227690 -2.579318 2.685236 21.431932 8.248125 -2.295604 -26.080746 0.000000 0.000000 0.000000 -22.788642 -10.853651 3.349402 -14.313801 5.241460 -2.260037 21.144162 -7.815293 -1.239041 0.000000 0.000000 0.000000 28.552746 0.175117 -0.208067 12.229872 -2.465464 -1.898949 -17.962252 12.254787 -1.144880 0.000000 0.000000 0.000000 
0.003202 0.945492 0.003541 -0.187112 2.349363 4.590583 2.593844 0.130406 3.020657 -2.333850 0.348702 -8.904235 1.277739 6.728289 11.222885 0.000000 0.000000 0.000000 -2.718610 0.093621 -0.174392 4.445442 -0.493428 -4.958667 0.875490 -2.382583 10.411202 0.000000 0.000000 0.000000 6.367981 0.172370 -3.463024 -3.935457 1.721635 -13.983697 -2.628191 2.375032 21.522496 8.450254 -2.379592 -26.779086 0.000000 0.000000 0.000000 -25.173079 -11.281465 3.727848 -16.847068 5.479319 -2.762357 20.691800 -9.706498 -1.453283 0.000000 0.000000 0.000000 30.860271 1.164941 0.206932 13.751614 -1.372903 -2.086500 -17.544525 12.542903 -1.142409 0.000000 0.000000 0.000000 
0.003642 0.944931 0.003286 -0.376756 2.209765 4.491325 2.708039 0.139934 3.241112 -2.255177 0.350298 -9.102990 1.387077 6.841014 11.044577 0.000000 0.000000 0.000000 -2.647946 0.068677 0.119296 4.614521 -0.503724 -5.353077 0.977672 -2.211436 10.453942 0.000000 0.000000 0.000000 6.458226 0.184171 -3.547491 -3.520804 1.587523 -13.355354 -2.895443 2.388035 21.358496 8.339629 -2.232039 -27.332419 0.000000 0.000000 0.000000 -27.791914 -11.713352 3.961381 -19.579132 4.850575 -3.177549 20.014999 -11.209021 -1.579780 0.000000 0.000000 0.000000 33.173566 1.926104 0.652334 16.329449 -0.320864 -2.416572 -17.377064 13.402064 -1.208468 0.000000 0.000000 0.000000 
0.003777 0.944598 0.002942 -0.616567 2.154422 4.389530 3.147090 0.125116 3.387017 -2.598286 0.359386 -9.196936 1.437143 6.878576 10.915013 0.000000 0.000000 0.000000 -2.394535 0.058046 0.153563 4.603920 -0.502644 -5.280877 1.004674 -2.145210 10.402219 0.000000 0.000000 0.000000 6.860214 0.169960 -3.349723 -3.610693 1.619305 -13.043453 -2.963395 1.828439 21.316757 8.535058 -2.253418 -28.478994 0.000000 0.000000 0.000000 -30.389394 -12.108464 4.457225 -22.603369 4.099612 -3.648022 19.334963 -12.276355 -1.613031 0.000000 0.000000 0.000000 35.041174 2.736719 0.895251 19.559093 0.237714 -2.786950 -16.638584 14.440681 -1.237461 0.000000 0.000000 0.000000 
